<mxfile host="app.diagrams.net" modified="2021-05-18T21:06:04.046Z" agent="5.0 (X11)" etag="HtdZJTy3IjKXdxNB1Hy2" version="14.6.13" type="github">
  <diagram id="C5RBs43oDa-KdzZeNtuy" name="Page-1">
    <mxGraphModel dx="1422" dy="751" grid="1" gridSize="10" guides="1" tooltips="1" connect="1" arrows="1" fold="1" page="1" pageScale="1" pageWidth="827" pageHeight="1169" math="0" shadow="0">
      <root>
        <mxCell id="WIyWlLk6GJQsqaUBKTNV-0" />
        <mxCell id="WIyWlLk6GJQsqaUBKTNV-1" parent="WIyWlLk6GJQsqaUBKTNV-0" />
        <mxCell id="4DiWNG6A0kZ1Glg3Uss4-3" style="edgeStyle=orthogonalEdgeStyle;rounded=0;orthogonalLoop=1;jettySize=auto;html=1;exitX=0.5;exitY=1;exitDx=0;exitDy=0;exitPerimeter=0;entryX=0.5;entryY=0;entryDx=0;entryDy=0;" edge="1" parent="WIyWlLk6GJQsqaUBKTNV-1" source="4DiWNG6A0kZ1Glg3Uss4-0" target="4DiWNG6A0kZ1Glg3Uss4-2">
          <mxGeometry relative="1" as="geometry" />
        </mxCell>
        <mxCell id="4DiWNG6A0kZ1Glg3Uss4-0" value="Start" style="strokeWidth=2;html=1;shape=mxgraph.flowchart.start_2;whiteSpace=wrap;" vertex="1" parent="WIyWlLk6GJQsqaUBKTNV-1">
          <mxGeometry x="80" y="40" width="100" height="100" as="geometry" />
        </mxCell>
        <mxCell id="4DiWNG6A0kZ1Glg3Uss4-1" value="" style="verticalLabelPosition=bottom;verticalAlign=top;html=1;shape=process;whiteSpace=wrap;rounded=1;size=0.14;arcSize=6;" vertex="1" parent="WIyWlLk6GJQsqaUBKTNV-1">
          <mxGeometry x="80" y="200" width="100" height="60" as="geometry" />
        </mxCell>
        <mxCell id="4DiWNG6A0kZ1Glg3Uss4-5" style="edgeStyle=orthogonalEdgeStyle;rounded=0;orthogonalLoop=1;jettySize=auto;html=1;exitX=0.5;exitY=1;exitDx=0;exitDy=0;entryX=0.5;entryY=0;entryDx=0;entryDy=0;entryPerimeter=0;" edge="1" parent="WIyWlLk6GJQsqaUBKTNV-1" source="4DiWNG6A0kZ1Glg3Uss4-2" target="4DiWNG6A0kZ1Glg3Uss4-4">
          <mxGeometry relative="1" as="geometry" />
        </mxCell>
        <mxCell id="4DiWNG6A0kZ1Glg3Uss4-2" value="Init Editor" style="text;html=1;strokeColor=none;fillColor=none;align=center;verticalAlign=middle;whiteSpace=wrap;rounded=0;" vertex="1" parent="WIyWlLk6GJQsqaUBKTNV-1">
          <mxGeometry x="100" y="200" width="60" height="60" as="geometry" />
        </mxCell>
        <mxCell id="4DiWNG6A0kZ1Glg3Uss4-12" style="edgeStyle=orthogonalEdgeStyle;rounded=0;orthogonalLoop=1;jettySize=auto;html=1;exitX=0.5;exitY=1;exitDx=0;exitDy=0;exitPerimeter=0;entryX=0.5;entryY=0;entryDx=0;entryDy=0;" edge="1" parent="WIyWlLk6GJQsqaUBKTNV-1" source="4DiWNG6A0kZ1Glg3Uss4-4" target="4DiWNG6A0kZ1Glg3Uss4-8">
          <mxGeometry relative="1" as="geometry" />
        </mxCell>
        <mxCell id="4DiWNG6A0kZ1Glg3Uss4-4" value="" style="strokeWidth=2;html=1;shape=mxgraph.flowchart.loop_limit;whiteSpace=wrap;" vertex="1" parent="WIyWlLk6GJQsqaUBKTNV-1">
          <mxGeometry x="80" y="320" width="100" height="60" as="geometry" />
        </mxCell>
        <mxCell id="4DiWNG6A0kZ1Glg3Uss4-6" value="Tant que le logiciel est ouvert" style="strokeWidth=2;html=1;shape=mxgraph.flowchart.annotation_2;align=left;labelPosition=right;pointerEvents=1;" vertex="1" parent="WIyWlLk6GJQsqaUBKTNV-1">
          <mxGeometry x="180" y="300" width="50" height="100" as="geometry" />
        </mxCell>
        <mxCell id="4DiWNG6A0kZ1Glg3Uss4-7" value="" style="verticalLabelPosition=bottom;verticalAlign=top;html=1;shape=process;whiteSpace=wrap;rounded=1;size=0.14;arcSize=6;" vertex="1" parent="WIyWlLk6GJQsqaUBKTNV-1">
          <mxGeometry x="80" y="440" width="100" height="60" as="geometry" />
        </mxCell>
        <mxCell id="4DiWNG6A0kZ1Glg3Uss4-13" style="edgeStyle=orthogonalEdgeStyle;rounded=0;orthogonalLoop=1;jettySize=auto;html=1;exitX=0.5;exitY=1;exitDx=0;exitDy=0;entryX=0.5;entryY=0;entryDx=0;entryDy=0;" edge="1" parent="WIyWlLk6GJQsqaUBKTNV-1" source="4DiWNG6A0kZ1Glg3Uss4-8" target="4DiWNG6A0kZ1Glg3Uss4-10">
          <mxGeometry relative="1" as="geometry" />
        </mxCell>
        <mxCell id="4DiWNG6A0kZ1Glg3Uss4-8" value="Display" style="text;html=1;strokeColor=none;fillColor=none;align=center;verticalAlign=middle;whiteSpace=wrap;rounded=0;" vertex="1" parent="WIyWlLk6GJQsqaUBKTNV-1">
          <mxGeometry x="100" y="440" width="60" height="60" as="geometry" />
        </mxCell>
        <mxCell id="4DiWNG6A0kZ1Glg3Uss4-9" value="" style="verticalLabelPosition=bottom;verticalAlign=top;html=1;shape=process;whiteSpace=wrap;rounded=1;size=0.14;arcSize=6;" vertex="1" parent="WIyWlLk6GJQsqaUBKTNV-1">
          <mxGeometry x="80" y="580" width="100" height="60" as="geometry" />
        </mxCell>
        <mxCell id="4DiWNG6A0kZ1Glg3Uss4-14" style="edgeStyle=orthogonalEdgeStyle;rounded=0;orthogonalLoop=1;jettySize=auto;html=1;exitX=0.5;exitY=1;exitDx=0;exitDy=0;entryX=0.5;entryY=1;entryDx=0;entryDy=0;entryPerimeter=0;" edge="1" parent="WIyWlLk6GJQsqaUBKTNV-1" source="4DiWNG6A0kZ1Glg3Uss4-10" target="4DiWNG6A0kZ1Glg3Uss4-11">
          <mxGeometry relative="1" as="geometry" />
        </mxCell>
        <mxCell id="4DiWNG6A0kZ1Glg3Uss4-10" value="Check Input" style="text;html=1;strokeColor=none;fillColor=none;align=center;verticalAlign=middle;whiteSpace=wrap;rounded=0;" vertex="1" parent="WIyWlLk6GJQsqaUBKTNV-1">
          <mxGeometry x="100" y="580" width="60" height="60" as="geometry" />
        </mxCell>
        <mxCell id="4DiWNG6A0kZ1Glg3Uss4-17" style="edgeStyle=orthogonalEdgeStyle;rounded=0;orthogonalLoop=1;jettySize=auto;html=1;exitX=0.5;exitY=0;exitDx=0;exitDy=0;exitPerimeter=0;entryX=0.5;entryY=0;entryDx=0;entryDy=0;" edge="1" parent="WIyWlLk6GJQsqaUBKTNV-1" source="4DiWNG6A0kZ1Glg3Uss4-11" target="4DiWNG6A0kZ1Glg3Uss4-16">
          <mxGeometry relative="1" as="geometry" />
        </mxCell>
        <mxCell id="4DiWNG6A0kZ1Glg3Uss4-11" value="" style="strokeWidth=2;html=1;shape=mxgraph.flowchart.loop_limit;whiteSpace=wrap;rotation=-180;" vertex="1" parent="WIyWlLk6GJQsqaUBKTNV-1">
          <mxGeometry x="80" y="710" width="100" height="60" as="geometry" />
        </mxCell>
        <mxCell id="4DiWNG6A0kZ1Glg3Uss4-15" value="" style="verticalLabelPosition=bottom;verticalAlign=top;html=1;shape=process;whiteSpace=wrap;rounded=1;size=0.14;arcSize=6;" vertex="1" parent="WIyWlLk6GJQsqaUBKTNV-1">
          <mxGeometry x="80" y="840" width="100" height="60" as="geometry" />
        </mxCell>
        <mxCell id="4DiWNG6A0kZ1Glg3Uss4-19" style="edgeStyle=orthogonalEdgeStyle;rounded=0;orthogonalLoop=1;jettySize=auto;html=1;exitX=0.5;exitY=1;exitDx=0;exitDy=0;" edge="1" parent="WIyWlLk6GJQsqaUBKTNV-1" source="4DiWNG6A0kZ1Glg3Uss4-16" target="4DiWNG6A0kZ1Glg3Uss4-18">
          <mxGeometry relative="1" as="geometry" />
        </mxCell>
        <mxCell id="4DiWNG6A0kZ1Glg3Uss4-16" value="Free Editor" style="text;html=1;strokeColor=none;fillColor=none;align=center;verticalAlign=middle;whiteSpace=wrap;rounded=0;" vertex="1" parent="WIyWlLk6GJQsqaUBKTNV-1">
          <mxGeometry x="100" y="840" width="60" height="60" as="geometry" />
        </mxCell>
        <mxCell id="4DiWNG6A0kZ1Glg3Uss4-18" value="End" style="strokeWidth=2;html=1;shape=mxgraph.flowchart.start_2;whiteSpace=wrap;" vertex="1" parent="WIyWlLk6GJQsqaUBKTNV-1">
          <mxGeometry x="80" y="980" width="100" height="100" as="geometry" />
        </mxCell>
      </root>
    </mxGraphModel>
  </diagram>
</mxfile>
